<?xml version="1.0" encoding="utf-8"?>
<!-- Generator: Adobe Illustrator 25.4.6, SVG Export Plug-In . SVG Version: 6.00 Build 0)  -->
<svg version="1.1" id="Layer_1" xmlns="http://www.w3.org/2000/svg" xmlns:xlink="http://www.w3.org/1999/xlink" x="0px" y="0px"
	 viewBox="0 0 320 540" style="enable-background:new 0 0 320 540;" xml:space="preserve">
<style type="text/css">
    @import url('https://fonts.googleapis.com/css?family=Roboto:100,300,400,500,600,700');
	.st0{font-family:'Roboto';font-weight:500;}
	.st1{font-size:14px;}
	.st2{font-family:'Roboto';font-weight:400;}
	.st3{fill:none;stroke:#000000;stroke-miterlimit:10;}
	.st4{fill:none;stroke:#000000;stroke-linecap:round;stroke-miterlimit:10;stroke-dasharray:0,2;}
	.st5{fill:none;stroke:#E69D33;stroke-width:1.7;stroke-miterlimit:10;}
	.st6{fill:#E3E3E3;}
	.st7{fill:url(#SVGID_1_);}
</style>
<image style="overflow:visible;" width="1013" height="803" xlink:href="../img/poles.jpg"  transform="matrix(0.29996 0 0 0.29996 24.29619 -7.98098)">
</image>
<text transform="matrix(1 0 0 1 67.01221 246.43001)" class="st0 st1">Mao Jue</text>
<text transform="matrix(1 0 0 1 204.21045 246.43001)" class="st0 st1">Kao Jue</text>
<text transform="matrix(1 0 0 1 74.05664 231.21614)" class="st2 st1">75mm</text>
<polyline class="st3" points="141.41365,171.81419 141.41365,228.21692 117.98962,228.21692 "/>
<polyline class="st3" points="49.94567,175.43138 49.94567,228.21689 71.10126,228.21689 "/>
<text transform="matrix(1 0 0 1 209.53906 231.21614)" class="st2 st1">40mm</text>
<polyline class="st3" points="261.67261,185.90886 261.67261,228.21692 253.00128,228.21692 "/>
<polyline class="st3" points="197.51067,183.39264 197.51067,228.21686 205.78033,228.21686 "/>
<line class="st4" x1="54.81506" y1="148.75226" x2="41.81637" y2="139.97092"/>
<line class="st3" x1="62.95495" y1="154.25121" x2="54.81506" y2="148.75226"/>
<g>
	<text transform="matrix(1 0 0 1 10 137.23665)" class="st2 st1">12mm</text>
</g>
<line class="st4" x1="201.03784" y1="163.91142" x2="188.03915" y2="155.13008"/>
<line class="st3" x1="209.17773" y1="169.41037" x2="201.03784" y2="163.91142"/>
<g>
	<text transform="matrix(1 0 0 1 159.32617 152.41634)" class="st2 st1">10mm</text>
</g>
<g>
	<text transform="matrix(1 0 0 1 189.19971 393.26816)" class="st2 st1">Nudo</text>
</g>
<g>
	<text transform="matrix(1 0 0 1 189.19952 426.47665)" class="st2 st1">Entrenudo</text>
</g>
<path class="st5" d="M173.00993,300.65039c0,0,1.39694,9.54578,1.16412,11.40839c-0.23283,1.86258-1.16412,4.42365-1.16412,4.42365
	s0,61.69833,0,64.49225c0,2.79388,0.59515,6.75189,0.59515,6.75189s-0.1295,3.25952-0.59515,4.88928
	c-0.46565,1.62979,0,54.01517,0,56.1106c0,2.0954,1.19029,6.51907,1.19029,6.51907l-0.69862,4.19083
	c0,0-1.39725,31.89688-0.69862,34.2251c0.69862,2.32825,1.39725,5.5878,1.39725,5.5878s-1.59286,3.95801-0.79643,6.28622
	c0.79643,2.32825,1.93437,23.04956,1.93437,23.04956"/>
<path class="st5" d="M128.8813,300.65039c0,0,1.03148,6.4744,0,7.91846c-1.03147,1.44406,0,2.03958,0,2.03958v3.5304
	c0,0,0.82518,64.15784,0,67.45856s-0.45844,9.077-0.45844,9.077s2.31509,10.40335,1.69621,12.6283
	c-0.61888,2.22498,1.24178,38.94553,0.10515,40.38959s-1.88257,9.48959-1.88257,9.48959l1.12939,4.74478c0,0,0,34.03873,0,37.33945
	s-2.03381,5.56998-2.03381,5.56998s1.92545,5.36368,1.5816,7.63293c-0.34384,2.26923-0.34384,11.75885-0.34384,13.40918
	c0,1.65039,0.34384,8.04553,0.34384,8.04553"/>
<path class="st6" d="M166.54741,380.15332c0,0,0,7.01404-1.44406,7.42664c-1.44408,0.41257-8.25182-0.4126-12.58401,0
	c-4.3322,0.41257-13.40919-0.2063-13.82179-1.85666c-0.41258-1.65036-0.82518-5.56998-0.82518-5.56998s0-38.16464,0-45.17868
	s-0.61888-17.5351,0-19.39175c0.6189-1.85666,3.71332-3.91962,5.36368-4.12592s4.9511,0.4126,7.83922,0
	c2.88814-0.41257,8.25182-0.70569,10.10847-0.0434s3.71332,0.0434,5.36368,3.55042s-0.41258,30.32541,0,33.41986
	c0.4126,3.09442,0.4126,18.36026,0.4126,22.27988S166.54741,380.15332,166.54741,380.15332z"/>
<path class="st6" d="M166.13483,394.59399c0,0-1.23778-3.09445-4.33221-3.71332c-3.09442-0.6189-6.80774,0.2063-7.42662,0
	c-0.6189-0.2063-8.8707-0.02829-11.55254,1.73935c-2.68184,1.76767-3.71332,3.62433-3.91962,5.06839
	s-0.2063,36.51425-0.2063,41.05276c0,4.53848-1.23776,11.34625,0,11.96512c1.23778,0.6189,4.3322,1.65036,6.80775,1.65036
	c2.47554,0,6.63583,0,6.63583,0s3.47263-0.2063,5.94818,0c2.47554,0.2063,8.04552,1.85666,8.04552-1.85666
	s-0.4126-10.15991,0-14.46637c0.41258-4.30649-0.4126-25.85895,0-29.62653
	C166.54741,402.6395,166.13483,394.59399,166.13483,394.59399z"/>
<path class="st6" d="M161.83438,499.55966c0,0,1.86259,0.9313,2.32825-1.70737c0.46564-2.63867,0.77608-33.8371,1.0865-36.32056
	c0.31044-2.48346,1.39694-3.8804,0-4.65646c-1.39694-0.77609-8.22644-1.86261-11.02032-1.7074
	c-2.7939,0.15524-6.20865,0.46567-8.07124,0.77609c-1.86258,0.31042-3.88039,0.31042-5.27733,0.77609
	c-1.39696,0.46564-2.99588,1.55215-3.28293,2.32822c0,0,0.02339,5.27734-0.7527,7.45038c-0.77608,2.17303-0.62086,5.89819,0,9.77859
	s1.66061,11.02036,0.7527,14.27988c-0.90791,3.25955-2.46007,6.51907-0.90791,8.07123
	c1.55217,1.55215,5.58778,0.93979,6.67429,1.09076c1.08652,0.15097,4.34605-0.30618,6.98473,0
	S160.58504,498.83835,161.83438,499.55966z"/>
<path class="st5" d="M166.54741,380.15332c0,0,0,7.01404-1.44406,7.42664c-1.44408,0.41257-8.25182-0.4126-12.58401,0
	c-4.3322,0.41257-13.40919-0.2063-13.82179-1.85666c-0.41258-1.65036-0.82518-5.56998-0.82518-5.56998s0-38.16464,0-45.17868
	s-0.61888-17.5351,0-19.39175c0.6189-1.85666,3.71332-3.91962,5.36368-4.12592s4.9511,0.4126,7.83922,0
	c2.88814-0.41257,8.25182-0.70569,10.10847-0.0434s3.71332,0.0434,5.36368,3.55042s-0.41258,30.32541,0,33.41986
	c0.4126,3.09442,0.4126,18.36026,0.4126,22.27988S166.54741,380.15332,166.54741,380.15332z"/>
<path class="st5" d="M166.13483,394.59399c0,0-1.23778-3.09445-4.33221-3.71332c-3.09442-0.6189-6.80774,0.2063-7.42662,0
	c-0.6189-0.2063-8.8707-0.02829-11.55254,1.73935c-2.68184,1.76767-3.71332,3.62433-3.91962,5.06839
	s-0.2063,36.51425-0.2063,41.05276c0,4.53848-1.23776,11.34625,0,11.96512c1.23778,0.6189,4.3322,1.65036,6.80775,1.65036
	c2.47554,0,6.63583,0,6.63583,0s3.47263-0.2063,5.94818,0c2.47554,0.2063,8.04552,1.85666,8.04552-1.85666
	s-0.4126-10.15991,0-14.46637c0.41258-4.30649-0.4126-25.85895,0-29.62653
	C166.54741,402.6395,166.13483,394.59399,166.13483,394.59399z"/>
<path class="st5" d="M161.83438,499.55966c0,0,1.86259,0.9313,2.32825-1.70737c0.46564-2.63867,0.77608-33.8371,1.0865-36.32056
	c0.31044-2.48346,1.39694-3.8804,0-4.65646c-1.39694-0.77609-8.22644-1.86261-11.02032-1.7074
	c-2.7939,0.15524-6.20865,0.46567-8.07124,0.77609c-1.86258,0.31042-3.88039,0.31042-5.27733,0.77609
	c-1.39696,0.46564-2.99588,1.55215-3.28293,2.32822c0,0,0.02339,5.27734-0.7527,7.45038c-0.77608,2.17303-0.62086,5.89819,0,9.77859
	s1.66061,11.02036,0.7527,14.27988c-0.90791,3.25955-2.46007,6.51907-0.90791,8.07123
	c1.55217,1.55215,5.58778,0.93979,6.67429,1.09076c1.08652,0.15097,4.34605-0.30618,6.98473,0
	S160.58504,498.83835,161.83438,499.55966z"/>
<linearGradient id="SVGID_1_" gradientUnits="userSpaceOnUse" x1="151.51549" y1="530.41907" x2="151.51549" y2="504.34091">
	<stop  offset="0" style="stop-color:#FFFFFF"/>
	<stop  offset="0.36198" style="stop-color:#E3E3E3"/>
</linearGradient>
<path class="st7" d="M165.94492,529.92371c0,0-1.00621-4.75342-0.69579-7.5473c0.31044-2.79388,0.0363-7.76056-0.05945-12.41714
	c-0.09576-4.65662-0.09576-5.74313-0.71663-6.36398c-0.62086-0.62088-4.9669-0.77609-9.15775-0.77609
	c-4.19083,0-6.36385,0.31046-9.31296,0.62088c-2.9491,0.31042-6.86255-0.15521-7.85492,1.24173
	c-0.99239,1.39694-0.99239,3.10431-0.99239,3.8804c0,0.77606,0,9.46814,0,12.88293c0,3.41473-0.15521,8.42029,0,8.47858"/>
<path class="st5" d="M165.94492,529.92371c0,0-1.00621-4.75342-0.69579-7.5473c0.31044-2.79388,0.0363-7.76056-0.05945-12.41714
	c-0.09576-4.65662-0.09576-5.74313-0.71663-6.36398c-0.62086-0.62088-4.9669-0.77609-9.15775-0.77609
	c-4.19083,0-6.36385,0.31046-9.31296,0.62088c-2.9491,0.31042-6.86255-0.15521-7.85492,1.24173
	c-0.99239,1.39694-0.99239,3.10431-0.99239,3.8804c0,0.77606,0,9.46814,0,12.88293c0,3.41473-0.15521,8.42029,0,8.47858"/>
<text transform="matrix(1 0 0 1 138.27615 277.22079)"><tspan x="0" y="0" class="st2 st1">Sección</tspan><tspan x="-10.3877" y="16.7998" class="st2 st1">de corte</tspan></text>
<line class="st4" x1="184.07581" y1="421.77264" x2="153.9639" y2="421.77264"/>
<line class="st4" x1="184.07581" y1="389.17252" x2="170.10635" y2="389.17252"/>
</svg>
